<?xml version="1.0" standalone="no"?>
<!DOCTYPE svg PUBLIC "-//W3C//DTD SVG 20010904//EN"
 "http://www.w3.org/TR/2001/REC-SVG-20010904/DTD/svg10.dtd">
<svg version="1.0" xmlns="http://www.w3.org/2000/svg"
 width="585.000000pt" height="586.000000pt" viewBox="0 0 585.000000 586.000000"
 preserveAspectRatio="xMidYMid meet">

<g transform="translate(0.000000,586.000000) scale(0.100000,-0.100000)"
fill="#000000" stroke="none">
<path d="M2848 5600 c-81 -21 -162 -72 -251 -160 l-89 -87 -46 14 c-60 18
-154 12 -214 -15 -58 -26 -124 -91 -151 -151 -32 -68 -31 -188 2 -254 24 -49
68 -101 110 -130 l25 -16 -42 -133 c-23 -73 -48 -159 -56 -191 -8 -33 -17 -61
-19 -64 -3 -2 -47 9 -99 25 -357 115 -613 159 -863 149 -208 -8 -327 -47 -433
-142 -106 -95 -146 -241 -116 -422 l5 -32 34 16 34 16 -1 91 c-1 102 10 149
54 218 141 224 615 238 1238 36 69 -22 126 -41 128 -43 1 -1 -7 -44 -18 -96
-11 -52 -20 -99 -20 -106 0 -17 67 -54 73 -40 2 7 12 56 22 110 12 61 23 97
31 97 35 0 557 -234 642 -288 l23 -15 -43 -25 c-141 -82 -228 -134 -228 -138
0 -7 59 -34 75 -34 9 0 74 34 146 75 71 41 134 75 139 75 5 0 73 -37 151 -81
l141 -82 34 16 c19 9 34 21 34 26 0 8 -58 44 -228 143 l-43 25 23 15 c85 54
607 288 642 288 8 0 21 -45 36 -125 20 -105 26 -125 39 -119 9 4 26 9 39 11
25 6 26 1 -9 172 -10 52 -18 95 -17 96 2 2 59 21 128 43 445 144 823 181 1049
101 115 -40 199 -121 231 -223 33 -102 2 -286 -74 -451 l-34 -73 25 -11 c41
-19 51 -13 82 52 115 240 126 466 30 610 -92 139 -243 204 -494 214 -250 10
-506 -34 -863 -149 -52 -16 -96 -28 -98 -25 -3 2 -16 47 -30 98 -84 317 -207
609 -335 794 -77 111 -192 218 -282 261 -63 29 -90 36 -154 40 -43 2 -95 -1
-115 -6z m240 -111 c167 -81 337 -326 466 -673 40 -107 126 -399 126 -427 0
-11 -13 -22 -37 -30 -78 -25 -325 -134 -510 -226 l-193 -95 -192 95 c-185 91
-431 200 -510 226 -25 8 -38 19 -38 30 0 18 80 306 98 352 10 24 16 27 85 31
87 6 152 33 207 88 107 107 118 281 25 403 l-35 46 55 60 c145 156 298 196
453 120z m-654 -200 c138 -34 206 -204 131 -325 -66 -106 -196 -141 -299 -80
-56 33 -101 98 -110 159 -13 84 37 187 108 224 65 34 104 39 170 22z"/>
<path d="M951 4089 c-264 -44 -517 -259 -606 -516 -49 -140 -57 -318 -21 -458
61 -236 269 -459 502 -540 223 -77 471 -52 654 66 87 56 144 105 195 167 l45
54 -103 98 -102 97 -73 -68 c-43 -40 -99 -81 -135 -98 -212 -101 -462 -44
-599 136 -207 273 -69 660 267 748 176 45 352 -9 485 -152 l68 -73 99 105 99
104 -25 33 c-176 236 -455 346 -750 297z"/>
<path d="M3900 3769 l0 -241 -42 41 c-178 172 -472 157 -654 -35 l-41 -43 -49
15 c-66 20 -207 29 -274 16 -51 -10 -57 -9 -85 14 -121 98 -230 144 -365 152
-162 9 -325 -53 -440 -168 -187 -187 -222 -480 -85 -716 40 -69 139 -163 212
-202 71 -37 196 -72 261 -72 43 0 48 -3 118 -78 88 -95 171 -151 279 -188 71
-25 94 -28 205 -28 111 0 134 3 205 28 108 37 191 93 279 188 73 78 73 78 124
78 112 0 217 38 305 112 l47 39 0 -75 0 -76 145 0 145 0 0 740 0 740 -145 0
-145 0 0 -241z m-1424 -407 c62 -32 97 -65 129 -124 26 -46 30 -63 30 -133 0
-70 -4 -87 -30 -133 -32 -59 -66 -91 -129 -125 -58 -31 -184 -31 -242 0 -63
34 -97 66 -128 123 -85 155 -11 342 161 406 53 20 157 13 209 -14z m1236 8
c74 -28 122 -70 157 -142 70 -140 17 -303 -123 -376 -43 -22 -64 -27 -131 -27
-67 0 -88 5 -131 27 -104 55 -162 161 -151 278 17 189 202 306 379 240z"/>
<path d="M4763 3676 c-204 -47 -386 -230 -433 -435 -16 -67 -16 -199 0 -266
46 -204 232 -387 437 -430 200 -43 408 14 545 147 35 35 73 77 84 93 l21 30
-97 92 -97 92 -59 -58 c-80 -78 -158 -115 -251 -119 -39 -2 -78 0 -87 5 -12 7
50 67 294 282 l309 274 -17 29 c-31 53 -111 135 -169 174 -129 85 -332 123
-480 90z m235 -296 c23 -11 42 -23 42 -28 0 -8 -69 -74 -352 -341 l-58 -54
-20 44 c-25 55 -25 120 -1 197 32 104 98 168 201 196 63 18 125 13 188 -14z"/>
<path d="M945 3577 c-218 -73 -286 -346 -125 -507 63 -63 119 -85 216 -85 70
0 87 4 140 31 221 115 213 446 -14 547 -58 25 -163 32 -217 14z m192 -95 c103
-53 148 -175 103 -280 -28 -65 -75 -107 -142 -127 -67 -20 -123 -12 -182 25
-100 64 -131 196 -70 295 16 27 41 57 55 67 67 50 161 58 236 20z"/>
<path d="M1976 2495 c-12 -12 -20 -13 -35 -6 -16 9 -23 6 -41 -17 l-22 -27 47
-41 46 -41 14 -154 c19 -195 59 -479 91 -633 13 -66 23 -121 21 -122 -1 -1
-58 -20 -127 -42 -445 -144 -823 -181 -1049 -101 -115 40 -199 121 -231 223
-7 22 -12 76 -12 120 2 189 113 434 324 714 43 57 80 107 83 112 3 4 -16 10
-41 12 -46 3 -46 3 -95 -59 -108 -137 -219 -321 -275 -455 -116 -274 -103
-491 39 -632 101 -102 226 -145 442 -153 250 -10 506 34 863 149 52 16 96 28
98 25 3 -2 16 -47 30 -98 84 -318 207 -609 336 -795 75 -110 194 -218 286
-262 72 -35 83 -37 172 -37 89 0 100 2 172 37 92 44 211 152 286 262 129 186
252 477 336 795 14 51 27 96 30 98 2 3 46 -9 98 -25 356 -115 611 -158 862
-149 208 7 328 46 434 142 201 181 162 512 -108 929 -78 121 -95 136 -142 128
l-36 -7 90 -135 c159 -239 239 -435 240 -596 1 -91 -11 -139 -54 -206 -141
-224 -615 -238 -1238 -36 -69 22 -126 41 -127 42 -2 1 8 56 21 122 43 212 96
609 96 723 0 49 3 56 40 90 l40 36 -66 13 c-70 13 -84 11 -84 -16 0 -29 -453
-335 -750 -506 l-134 -78 -51 25 c-127 62 -485 288 -722 456 -110 77 -123 89
-123 116 -1 54 -11 75 -35 75 -13 0 -31 -7 -39 -15z m349 -378 c150 -100 322
-207 448 -279 77 -44 78 -45 55 -60 -86 -54 -607 -288 -642 -288 -22 0 -98
457 -122 734 l-6 79 63 -46 c35 -26 127 -89 204 -140z m1490 106 c-23 -274
-99 -733 -121 -733 -35 0 -556 234 -642 288 -23 15 -22 16 55 60 185 106 500
308 648 416 33 25 62 45 64 45 2 1 0 -34 -4 -76z m-681 -577 c184 -90 430
-200 509 -225 23 -8 37 -19 37 -29 0 -9 -18 -81 -40 -159 -139 -498 -340 -838
-557 -945 -58 -29 -78 -33 -143 -33 -66 0 -85 4 -145 34 -170 83 -341 329
-469 675 -39 105 -126 399 -126 425 0 11 38 31 123 65 136 55 437 194 537 249
36 20 69 36 74 37 5 0 95 -42 200 -94z"/>
</g>
</svg>
